Coordinates
version=1
nRows=9
nColumns=36
inDegrees=yes

Units are S.I. units (second, meters, Newtons, ...)
If the header above contains a line with 'inDegrees', this indicates whether rotational values are in degrees (yes) or radians (no).

endheader
time	pelvis_tilt	pelvis_list	pelvis_rotation	pelvis_tx	pelvis_ty	pelvis_tz	hip_flexion_r	hip_adduction_r	hip_rotation_r	knee_angle_r	knee_angle_r_beta	ankle_angle_r	subtalar_angle_r	mtp_angle_r	hip_flexion_l	hip_adduction_l	hip_rotation_l	knee_angle_l	knee_angle_l_beta	ankle_angle_l	subtalar_angle_l	mtp_angle_l	lumbar_extension	lumbar_bending	lumbar_rotation	arm_flex_r	arm_add_r	arm_rot_r	elbow_flex_r	pro_sup_r	arm_flex_l	arm_add_l	arm_rot_l	elbow_flex_l	pro_sup_l
      3.48333330	      0.95060246	      7.08866231	     -9.51894126	     -0.01622699	      0.92695867	      0.07994701	     11.29334895	      1.46844192	     11.43675871	     13.84311371	      0.24160791	      5.97707543	    -12.35594101	     -7.49999987	     69.93755235	     -2.12830805	     -1.12615906	     40.32820955	      0.70386004	    -12.41785692	    -22.02188880	     -7.49999987	    -14.82452025	     -5.12233090	      2.27023481	     17.90875705	    -24.31854835	     25.63968407	     86.91003088	     80.87033722	      2.30975999	    -15.62675976	     10.61928427	     81.27277412	     77.44577128
      3.50000000	      0.79388490	      7.21515293	     -9.42977430	     -0.01414243	      0.92481287	      0.08234483	     11.46052757	      1.56539687	     11.86099209	     14.07866812	      0.24571911	      6.37225720	    -13.08998590	     -7.49999987	     70.68063950	     -2.10118665	     -0.99201712	     41.62950848	      0.72657199	    -12.46165988	    -22.22336687	     -7.49999987	    -14.25490973	     -5.60987156	      1.88896876	     18.72626777	    -24.59808066	     26.72778059	     89.16780190	     80.93531752	      3.22500916	    -15.66886048	     11.42294177	     82.63448721	     77.28408856
      3.51666670	      0.52085010	      7.16876852	     -9.35809052	     -0.01450877	      0.92303004	      0.08197713	     11.94668260	      1.82313239	     12.13868266	     14.55376826	      0.25401117	      6.81672264	    -13.78598702	     -7.49999987	     71.27612880	     -2.14611948	     -0.88744924	     42.21952320	      0.73686969	    -12.38773839	    -21.96164910	     -7.49999987	    -13.58182895	     -5.87561060	      1.41558023	     19.86124091	    -24.91347772	     27.88109439	     91.14980944	     81.08762978	      4.62723614	    -15.52925845	     12.15058877	     83.60358373	     77.19182297
      3.53333330	      0.32503535	      7.20436924	     -9.48924853	     -0.01619842	      0.92415476	      0.08252699	     12.36063046	      1.99844403	     12.70352739	     14.94872851	      0.26090453	      6.91439790	    -14.41796620	     -7.49999987	     71.21731097	     -2.34907761	     -0.78456460	     41.82361519	      0.72995979	    -12.68185069	    -22.30375008	     -7.49999987	    -13.07244857	     -6.24263638	      1.06925876	     21.25624052	    -25.15320843	     29.28698828	     92.85874365	     80.68653894	      6.28945947	    -15.14785082	     12.83996697	     84.12397873	     76.54200465
      3.55000000	      0.11390352	      6.90216462	     -9.74004328	     -0.01840774	      0.92131177	      0.08291819	     12.92880099	      2.52741243	     12.97914945	     15.52074358	      0.27088808	      6.85886056	    -15.04374128	     -7.49999987	     71.34037734	     -2.79322502	     -0.71450948	     41.53276726	      0.72488354	    -12.22533641	    -21.49436740	     -7.49999987	    -12.78920606	     -6.23941136	      0.76559717	     23.45106698	    -25.72328941	     31.34358774	     94.62245009	     81.12706149	      8.25997477	    -14.67802769	     13.52834993	     84.52606991	     76.03161402
      3.56666670	     -0.04729928	      6.88167849	     -9.89208952	     -0.01875352	      0.92236725	      0.08428943	     13.34595313	      2.75892166	     13.32003334	     15.79056829	      0.27559741	      6.74558734	    -15.39513713	     -7.49999987	     71.21465954	     -3.05829098	     -0.74681764	     40.80998960	      0.71226869	    -12.68682635	    -21.75711251	     -7.49999987	    -12.51721077	     -6.54774124	      0.42248176	     25.31291728	    -25.91091200	     32.60304602	     96.13225620	     80.79094209	     10.21084491	    -13.92089164	     13.71787175	     84.56205545	     75.37780186
      3.58333330	     -0.23191611	      6.77051980	    -10.00120035	     -0.01987550	      0.92353820	      0.08512466	     13.69493944	      3.07486127	     13.52348891	     15.94316612	      0.27826074	      6.51752764	    -15.81147607	     -7.49999987	     70.90148630	     -3.34119260	     -0.75862458	     39.74464607	      0.69367493	    -13.02952008	    -22.10610843	     -7.49999987	    -12.24914926	     -6.80028027	     -0.02559636	     27.35069715	    -26.09663920	     33.94960706	     97.36335323	     80.35813246	     12.29622252	    -12.97790476	     14.00605692	     84.33070651	     74.61847981
      3.60000000	     -0.31854841	      6.67012367	    -10.05648250	     -0.01870141	      0.92378634	      0.08526739	     13.99231247	      3.31764329	     13.57229674	     16.25303518	      0.28366898	      6.30169452	    -16.12018465	     -7.49999987	     70.35478748	     -3.57214361	     -0.82399457	     38.53905596	      0.67263342	    -13.16961699	    -22.25402497	     -7.49999987	    -12.17077287	     -7.07632597	     -0.53296958	     28.96650104	    -26.34550356	     35.45066304	     98.79782280	     80.67194593	     14.08466190	    -12.01994060	     14.15606549	     83.97928367	     74.40976062
      3.61666670	     -0.44547052	      6.69395293	     -9.85085986	     -0.01943887	      0.92398622	      0.08778855	     14.10239753	      3.31605795	     13.34832831	     16.14808912	      0.28183732	      6.18524890	    -16.08316485	     -7.49999987	     70.48021597	     -3.58129550	     -0.81604921	     38.69967025	      0.67543667	    -13.54881470	    -22.76243957	     -7.49999987	    -11.93195798	     -7.50092229	     -1.27249662	     30.35008438	    -26.44665829	     36.68220063	     99.88711857	     80.97725075	     15.86293564	    -11.23559873	     14.38486881	     83.52512456	     74.04187819
